<svg width="32" height="32" viewBox="0 0 32 32" fill="none" xmlns="http://www.w3.org/2000/svg">
  <rect width="32" height="32" rx="6" fill="url(#gradient)"/>
  <defs>
    <linearGradient id="gradient" x1="0" y1="0" x2="32" y2="32" gradientUnits="userSpaceOnUse">
      <stop offset="0%" stop-color="#8b5cf6"/>
      <stop offset="100%" stop-color="#6366f1"/>
    </linearGradient>
  </defs>
  <path d="M16 6C10.48 6 6 10.48 6 16C6 21.52 10.48 26 16 26C21.52 26 26 21.52 26 16C26 10.48 21.52 6 16 6ZM16 24C11.59 24 8 20.41 8 16C8 11.59 11.59 8 16 8C20.41 8 24 11.59 24 16C24 20.41 20.41 24 16 24Z" fill="white"/>
  <circle cx="13" cy="14" r="1.5" fill="white"/>
  <circle cx="19" cy="14" r="1.5" fill="white"/>
  <path d="M16 22C18.21 22 20.1 20.67 21 18.75C20.32 19.55 19.22 20.05 18 20.05H14C12.78 20.05 11.68 19.55 11 18.75C11.9 20.67 13.79 22 16 22Z" fill="white"/>
  <path d="M12 12C12 11.45 12.45 11 13 11H15V9H13C11.34 9 10 10.34 10 12V13H12V12Z" fill="white"/>
  <path d="M20 12C20 11.45 19.55 11 19 11H17V9H19C20.66 9 22 10.34 22 12V13H20V12Z" fill="white"/>
</svg>
